General
Complete name                    : Enrique Iglesias - Away ft. Sean Garrett 480p.flv
Format                           : Flash Video
File size                        : 36.2 MiB
Duration                         : 4mn 32s
Overall bit rate                 : 1 113 Kbps
 
Video
Format                           : AVC
Format/Info                      : Advanced Video Codec
Format profile                   : Main@L3.0
Format settings, CABAC           : Yes
Duration                         : 4mn 32s
Bit rate                         : 987 Kbps
Width                            : 854 pixels
Height                           : 480 pixels
Display aspect ratio             : 16:9
Frame rate                       : 23.976 fps
Resolution                       : 24 bits
Colorimetry                      : 4:2:0
Scan type                        : Progressive
Bits/(Pixel*Frame)               : 0.100
Stream size                      : 32.1 MiB (89%)

Audio
Format                           : AAC
Format/Info                      : Advanced Audio Codec
Format version                   : Version 4
Format profile                   : LC
Format settings, SBR             : No
Duration                         : 4mn 32s
Bit rate                         : 120 Kbps
Channel(s)                       : 2 channels
Channel positions                : L R
Sampling rate                    : 44.1 KHz
Resolution                       : 16 bits
Stream size                      : 3.89 MiB (11%)


 
http://img.sceper.eu/images/vlcsnamom.png
 
http://img.sceper.eu/images/vlcsnalil.png
 
http://img.sceper.eu/images/vlcsnafzf.png